[img]http://img824.imageshack.us/img824/5955/eragon2006810pbluraydua.jpg[/img]
 
http://www.imdb.com/title/tt0449010/

Source: Eragon.2006.BluRay.1080p.DTS.2Audio.x264-CHD

Subs: Dutch, English.

Sample and Screens included.

General
Complete name                    : Eragon 2006-MP4 AAC BRRip-CC\Eragon 2006-MP4 AAC BRRip-CC.mp4
Format                           : MPEG-4
Format profile                   : Base Media
Codec ID                         : isom
File size                        : 1.65 GiB
Duration                         : 1h 43mn
Overall bit rate                 : 2 287 Kbps
Encoded date                     : UTC 2011-11-12 09:54:43
Tagged date                      : UTC 2011-11-12 09:54:43
Writing application              : Yamb 2.1.0.0 

Video
ID                               : 1
Format                           : AVC
Format/Info                      : Advanced Video Codec
Format profile                   : Main@L3.0
Format settings, CABAC           : Yes
Format settings, ReFrames        : 1 frame
Codec ID                         : avc1
Codec ID/Info                    : Advanced Video Coding
Duration                         : 1h 43mn
Bit rate mode                    : Variable
Bit rate                         : 1 899 Kbps
Maximum bit rate                 : 6 692 Kbps
Width                            : 720 pixels
Height                           : 304 pixels
Display aspect ratio             : 2.35:1
Frame rate mode                  : Variable
Frame rate                       : 23.976 fps
Minimum frame rate               : 23.810 fps
Maximum frame rate               : 24.390 fps
Resolution                       : 8 bits
Colorimetry                      : 4:2:0
Scan type                        : Progressive
Bits/(Pixel*Frame)               : 0.362
Stream size                      : 1.37 GiB (83%)
Writing library                  : x264 core 65
Encoding settings                : cabac=1 / ref=1 / deblock=1:0:0 / analyse=0x1:0x111 / me=hex / subme=6 / psy_rd=1.0:0.0 / mixed_ref=0 / me_range=16 / chroma_me=1 / trellis=0 / 8x8dct=0 / cqm=0 / deadzone=21,11 / chroma_qp_offset=-2 / threads=3 / nr=0 / decimate=1 / mbaff=0 / bframes=0 / keyint=240 / keyint_min=24 / scenecut=40(pre) / rc=2pass / bitrate=1899 / ratetol=1.0 / qcomp=0.60 / qpmin=10 / qpmax=51 / qpstep=4 / cplxblur=20.0 / qblur=0.5 / ip_ratio=1.40 / aq=1:1.00
Encoded date                     : UTC 2011-11-13 02:01:50
Tagged date                      : UTC 2011-11-12 09:56:46
Color primaries                  : BT.709-5, BT.1361, IEC 61966-2-4, SMPTE RP177
Transfer characteristics         : BT.709-5, BT.1361
Matrix coefficients              : BT.709-5, BT.1361, IEC 61966-2-4 709, SMPTE RP177

Audio
ID                               : 2
Format                           : AAC
Format/Info                      : Advanced Audio Codec
Format version                   : Version 4
Format profile                   : LC
Format settings, SBR             : No
Codec ID                         : 40
Duration                         : 1h 43mn
Bit rate mode                    : Variable
Bit rate                         : 384 Kbps
Maximum bit rate                 : 566 Kbps
Channel(s)                       : 6 channels
Channel positions                : Front: L C R, Rear: L R, LFE
Sampling rate                    : 48.0 KHz
Stream size                      : 284 MiB (17%)
Language                         : English
Encoded date                     : UTC 2011-11-12 09:56:14
Tagged date                      : UTC 2011-11-12 09:56:46

[img]http://img525.imageshack.us/img525/2807/eragon2006mp4aacbrripcc.jpg[/img]